Coordinates
version=1
nRows=22
nColumns=24
inDegrees=yes

Units are S.I. units (second, meters, Newtons, ...)
Angles are in degrees.

endheader
time	pelvis_tilt	pelvis_list	pelvis_rotation	pelvis_tx	pelvis_ty	pelvis_tz	hip_flexion_r	hip_adduction_r	hip_rotation_r	knee_angle_r	ankle_angle_r	subtalar_angle_r	mtp_angle_r	hip_flexion_l	hip_adduction_l	hip_rotation_l	knee_angle_l	ankle_angle_l	subtalar_angle_l	mtp_angle_l	lumbar_extension	lumbar_bending	lumbar_rotation
      1.50033333	     -3.64099697	      5.70728828	     -1.19839266	      0.38019793	      0.90156607	      0.31056826	     19.44673441	    -10.30637261	     -8.40850122	    -70.14113609	      4.34986550	      7.22615923	     11.37666088	     14.45663367	      9.65934212	     -5.09382069	    -18.62837487	      9.10017401	     -6.29815203	      3.70298180	     -0.50871799	    -10.11232972	      2.98740497
      1.50450000	     -3.62817961	      5.58555885	     -0.91765623	      0.38529830	      0.90265735	      0.31010390	     19.99840321	    -10.15843184	     -8.58910401	    -69.63391199	      4.96384259	      6.92887737	     11.32511724	     13.79510511	      9.61645109	     -4.83632643	    -18.08592997	      9.07202926	     -6.10411785	      3.72196423	     -0.51701801	    -10.01010452	      2.80896295
      1.50866667	     -3.50688476	      5.45205405	     -0.63392699	      0.39041453	      0.90393206	      0.30961166	     20.40093936	    -10.00639791	     -8.78279692	    -69.04322596	      5.46226846	      6.67178773	     11.15862005	     12.96652393	      9.57740592	     -4.46211843	    -17.43987368	      9.04260524	     -6.04642806	      3.76721998	     -0.70211597	     -9.87848356	      2.26339465
      1.51283333	     -3.43128666	      5.31967666	     -0.33623140	      0.39550324	      0.90508468	      0.30911053	     20.84620185	     -9.85875486	     -8.98702038	    -68.41808181	      5.98535252	      6.40180487	     10.99771304	     12.21163982	      9.52594589	     -4.11577846	    -16.83890468	      8.99548359	     -5.94391330	      3.80921941	     -0.81678707	     -9.75545285	      1.88098666
      1.51700000	     -3.35492890	      5.19034182	     -0.03337115	      0.40058476	      0.90620393	      0.30859567	     21.27782489	     -9.72231116	     -9.19836329	    -67.74613717	      6.47394224	      6.14853616	     10.80609428	     11.45395793	      9.47076950	     -3.77230949	    -16.22627831	      8.93994326	     -5.84834263	      3.85713195	     -0.91638237	     -9.62635418	      1.48292175
      1.52116667	     -3.26549954	      5.04802921	      0.27493088	      0.40564668	      0.90730784	      0.30808915	     21.67838838	     -9.56972780	     -9.41311051	    -67.01923441	      6.92718456	      5.89390366	     10.63894338	     10.68907730	      9.39184572	     -3.42629787	    -15.62634895	      8.89883089	     -5.73238625	      3.89780509	     -1.04606910	     -9.49364718	      1.11703313
      1.52533333	     -3.17571495	      4.90798844	      0.58816292	      0.41070430	      0.90837243	      0.30757006	     22.06544923	     -9.42636056	     -9.63433195	    -66.24790311	      7.35056870	      5.64380454	     10.47206255	      9.92534488	      9.30843275	     -3.07877415	    -15.02408648	      8.84805111	     -5.62593314	      3.93651461	     -1.16840259	     -9.35467755	      0.73575359
      1.52950000	     -3.08426288	      4.76955250	      0.90371269	      0.41574631	      0.90939448	      0.30704968	     22.43874218	     -9.28719507	     -9.85645552	    -65.43268557	      7.74063482	      5.40363761	     10.29624929	      9.16115196	      9.21881459	     -2.72770632	    -14.41720032	      8.79374845	     -5.52601091	      3.97550334	     -1.29345814	     -9.21706296	      0.34467487
      1.53366667	     -2.99072116	      4.63076275	      1.22198490	      0.42077225	      0.91037274	      0.30652747	     22.79715398	     -9.15117003	    -10.08088932	    -64.57404729	      8.09446834	      5.16232164	     10.11438655	      8.40025030	      9.12043385	     -2.37760406	    -13.81578307	      8.73895928	     -5.42956578	      4.01443232	     -1.41902800	     -9.07665532	     -0.04374060
      1.53783333	     -2.92102403	      4.51770644	      1.56073964	      0.42577566	      0.91125316	      0.30596754	     23.17229646	     -9.05844439	    -10.31838621	    -63.69417904	      8.46292158	      4.95040516	      9.63742067	      7.66019236	      9.05194974	     -1.96367582	    -13.19359109	      8.60713067	     -5.46092193	      4.10996909	     -1.50933645	     -8.97615202	     -0.56900380
      1.54200000	     -2.82926944	      4.35741932	      1.88138644	      0.43076492	      0.91213737	      0.30548461	     23.50155691	     -8.89192408	    -10.54071692	    -62.73529417	      8.74204606	      4.68915143	      9.52917902	      6.93531723	      8.90094566	     -1.67225181	    -12.65184352	      8.58048156	     -5.24248663	      4.13468356	     -1.64511002	     -8.81277239	     -0.75135379
      1.54616667	     -2.73477708	      4.25305893	      2.19718200	      0.43576733	      0.91294746	      0.30494738	     23.83054766	     -8.80624242	    -10.75476971	    -61.77552320	      8.99052359	      4.45118594	      9.11226702	      6.16402539	      8.82190333	     -1.28658084	    -12.01263315	      8.50099531	     -5.25178828	      4.21774301	     -1.76295803	     -8.70280268	     -1.32637439
      1.55033333	     -2.64206371	      4.09886565	      2.51413355	      0.44073911	      0.91373021	      0.30447518	     24.13294275	     -8.64752994	    -10.96931584	    -60.73472233	      9.18334448	      4.17981184	      8.99924261	      5.44557949	      8.66090639	     -1.00445686	    -11.47351458	      8.47251117	     -5.05194251	      4.24277153	     -1.89108003	     -8.53866741	     -1.51220607
      1.55450000	     -2.54099441	      3.97185607	      2.82532523	      0.44571651	      0.91445596	      0.30399675	     24.42045625	     -8.52429642	    -11.17701677	    -59.67311142	      9.33344162	      3.88316737	      8.86923950	      4.70367350	      8.52575707	     -0.70446068	    -10.89956258	      8.42919547	     -4.90957600	      4.26983740	     -2.02486094	     -8.40369051	     -1.85076663
      1.55866667	     -2.46379744	      3.89463339	      3.12931126	      0.45066780	      0.91505448	      0.30350293	     24.74253499	     -8.46220433	    -11.35796021	    -58.61966983	      9.47814744	      3.61132186	      8.46219105	      3.96228854	      8.45157503	     -0.30736505	    -10.26790886	      8.34486061	     -4.96311861	      4.35131436	     -2.13113895	     -8.32947669	     -2.42731067
      1.56283333	     -2.38052263	      3.75763759	      3.43511324	      0.45563355	      0.91564950	      0.30305479	     25.01796737	     -8.32251990	    -11.55672376	    -57.47109729	      9.54647551	      3.30274525	      8.33788629	      3.26681168	      8.28445545	     -0.06220111	     -9.74097482	      8.31576096	     -4.76803809	      4.37829390	     -2.23231748	     -8.17652747	     -2.60051003
      1.56700000	     -2.29175307	      3.65330213	      3.72667253	      0.46059107	      0.91617436	      0.30262794	     25.28644630	     -8.21432096	    -11.72961128	    -56.31083371	      9.58331566	      2.94966893	      8.19734167	      2.55161188	      8.14811448	      0.20284290	     -9.18181675	      8.27821651	     -4.62285003	      4.40829483	     -2.34934518	     -8.06536480	     -2.91343566
      1.57116667	     -2.20830736	      3.57777774	      3.99496118	      0.46554921	      0.91660552	      0.30221535	     25.56403107	     -8.13236009	    -11.86795837	    -55.14565818	      9.57443938	      2.58633762	      7.94470449	      1.82226748	      8.04383337	      0.50746461	     -8.58434265	      8.26865083	     -4.58388512	      4.46177374	     -2.45942693	     -7.98369149	     -3.34242721
      1.57533333	     -2.14819883	      3.48032092	      4.29354786	      0.47049206	      0.91697780	      0.30180110	     25.83142645	     -8.03401972	    -12.04014828	    -53.91561288	      9.57258946	      2.22947219	      7.79412886	      1.16039695	      7.90033513	      0.75265267	     -8.06268302	      8.18611211	     -4.42840529	      4.49382315	     -2.53322107	     -7.88035789	     -3.58155705
      1.57950000	     -2.08970318	      3.43663355	      4.57128353	      0.47544684	      0.91724505	      0.30138368	     26.11046605	     -7.99744279	    -12.18549195	    -52.70793705	      9.55800630	      1.84477785	      7.21162354	      0.45253525	      7.82280671	      1.11161593	     -7.45053366	      8.09556112	     -4.50648404	      4.61997903	     -2.60682782	     -7.84274258	     -4.08923579
      1.58366667	     -2.01734262	      3.35481897	      4.81155045	      0.48041391	      0.91749741	      0.30106517	     26.35231844	     -7.88329070	    -12.28258751	    -51.42515581	      9.45012050	      1.41848006	      7.02993920	     -0.22938624	      7.68082952	      1.28943790	     -6.91868695	      8.11074702	     -4.30300201	      4.66169028	     -2.70016607	     -7.74875491	     -4.23443961
      1.58783333	     -1.96672967	      3.28466715	      5.07421713	      0.48538538	      0.91766512	      0.30072666	     26.59571425	     -7.79607623	    -12.40613275	    -50.11841248	      9.35814133	      0.99131800	      6.88141668	     -0.87918343	      7.54797089	      1.49229826	     -6.40308137	      8.04470919	     -4.13581409	      4.69410311	     -2.76526229	     -7.67796657	     -4.46667766
